# xmcd
#
# Track frame offsets:
#	150
#	11025
#	35144
#	78771
#	120002
#	122349
#	151944
#	176741
#	196526
#	207534
#	239082
#	249810
#	287867
#
# Disc length: 4407 seconds
#
# Revision: 1
# Processed by: cddbd v1.5.2PL0 Copyright (c) Steve Scherf et al.
# Submitted via: audiograbber 1.83.01
#
DISCID=a311350d
DTITLE=Grateful Dead - 70-01-30 The Warehouse, New Orleans LA
DYEAR=1900
DGENRE=
TTITLE0=Cryptical Envelopment
TTITLE1=Drums
TTITLE2=The Other One
TTITLE3=Cryptical Envelopment
TTITLE4=Cosmic Charlie
TTITLE5=Hard To Handle
TTITLE6=China Cat Sunflower
TTITLE7=I Know You Rider
TTITLE8=St Stephen
TTITLE9=Not Fade Away
TTITLE10=St Stephen
TTITLE11=Midnight Hour
TTITLE12=Jam (with Jefferson Airplane and Santana)
EXTD=
EXTT0=
EXTT1=
EXTT2=
EXTT3=
EXTT4=
EXTT5=
EXTT6=
EXTT7=
EXTT8=
EXTT9=
EXTT10=
EXTT11=
EXTT12=
PLAYORDER=
